<svg width="25" height="25" viewBox="0 0 25 25" fill="none" xmlns="http://www.w3.org/2000/svg">
<path d="M7.862 20.3138C17.296 20.3138 22.456 12.4978 22.456 5.7198C22.456 5.4978 22.456 5.2768 22.441 5.0568C23.4448 4.33071 24.3114 3.43168 25 2.4018C24.0639 2.8168 23.0709 3.08884 22.054 3.2088C23.1248 2.56785 23.9262 1.55962 24.309 0.3718C23.3022 0.969309 22.2007 1.39037 21.052 1.6168C20.2787 0.794485 19.2559 0.249968 18.1419 0.0675133C17.0279 -0.114942 15.8848 0.0748364 14.8895 0.607481C13.8943 1.14013 13.1023 1.98594 12.6362 3.01404C12.1701 4.04214 12.0558 5.1952 12.311 6.2948C10.2718 6.19251 8.27683 5.66254 6.45568 4.73931C4.63453 3.81607 3.02788 2.5202 1.74 0.9358C1.08409 2.06496 0.8832 3.40166 1.17823 4.67374C1.47326 5.94582 2.24202 7.05763 3.328 7.7828C2.5117 7.75888 1.71317 7.53867 1 7.1408V7.2058C1.00032 8.39002 1.41026 9.53767 2.16028 10.4541C2.9103 11.3705 3.95423 11.9993 5.115 12.2338C4.35988 12.4398 3.56758 12.4699 2.799 12.3218C3.12689 13.3409 3.76503 14.2321 4.62421 14.8707C5.48338 15.5093 6.52065 15.8636 7.591 15.8838C6.52754 16.7197 5.3097 17.3377 4.00716 17.7026C2.70462 18.0674 1.34293 18.1718 0 18.0098C2.34566 19.515 5.07492 20.3135 7.862 20.3098" fill="url(#paint0_linear_1121_3437)"/>
<defs>
<linearGradient id="paint0_linear_1121_3437" x1="1.42857" y1="18.0141" x2="23.9286" y2="1.22838" gradientUnits="userSpaceOnUse">
<stop stop-color="#4BEEE5"/>
<stop offset="0.9999" stop-color="#7AB5EB"/>
<stop offset="1" stop-color="#AA7AF2"/>
</linearGradient>
</defs>
</svg>
