<svg width="35" height="35" viewBox="0 0 35 35" fill="none" xmlns="http://www.w3.org/2000/svg">
<path d="M11.0068 28.4393C24.2144 28.4393 31.4384 17.4969 31.4384 8.00772C31.4384 7.69692 31.4384 7.38752 31.4174 7.07952C32.8228 6.063 34.0359 4.80435 35 3.36252C33.6895 3.94352 32.2992 4.32437 30.8756 4.49232C32.3747 3.59499 33.4967 2.18346 34.0326 0.52052C32.6231 1.35703 31.0809 1.94652 29.4728 2.26352C28.3901 1.11228 26.9582 0.349956 25.3986 0.0945186C23.839 -0.160919 22.2387 0.104771 20.8454 0.850473C19.452 1.59617 18.3432 2.78032 17.6907 4.21965C17.0381 5.65899 16.8781 7.27328 17.2354 8.81272C14.3805 8.66951 11.5876 7.92756 9.03796 6.63503C6.48835 5.3425 4.23903 3.52828 2.436 1.31012C1.51773 2.89095 1.23648 4.76233 1.64952 6.54324C2.06256 8.32415 3.13883 9.88068 4.6592 10.8959C3.51638 10.8624 2.39844 10.5541 1.4 9.99712V10.0881C1.40045 11.746 1.97437 13.3527 3.0244 14.6357C4.07442 15.9187 5.53592 16.799 7.161 17.1273C6.10383 17.4157 4.99461 17.4578 3.9186 17.2505C4.37765 18.6772 5.27104 19.9249 6.47389 20.819C7.67674 21.7131 9.12891 22.209 10.6274 22.2373C9.13856 23.4076 7.43358 24.2728 5.61003 24.7836C3.78647 25.2943 1.8801 25.4405 0 25.2137C3.28392 27.321 7.10489 28.4388 11.0068 28.4337" fill="url(#paint0_linear_256_345)"/>
<defs>
<linearGradient id="paint0_linear_256_345" x1="2" y1="25.2197" x2="33.5" y2="1.71973" gradientUnits="userSpaceOnUse">
<stop stop-color="#4BEEE5"/>
<stop offset="0.489583" stop-color="#7AB5EB"/>
<stop offset="1" stop-color="#AA7AF2"/>
</linearGradient>
</defs>
</svg>
