<svg width="1440" height="910" viewBox="0 0 1440 910" fill="none" xmlns="http://www.w3.org/2000/svg">
<path d="M0 -32H1447V650.699C725.007 784.861 859.156 444.361 0 650.699V-32Z" fill="url(#paint0_linear_0_1)"/>
<path d="M0 -32H1447V631.602C725.007 762.012 859.156 431.036 0 631.602V-32Z" fill="url(#paint1_linear_0_1)"/>
<path d="M95.709 -183.958L1537 -70.462L1445.61 712.943C708.512 810.265 887.71 430.059 4.3238 599.446L95.709 -183.958Z" fill="url(#paint2_linear_0_1)"/>
<mask id="path-4-inside-1_0_1" fill="white">
<path d="M1305.4 827.464C1315.05 796.375 1315.52 763.494 1306.77 732.184C1298.02 700.873 1280.35 672.255 1255.59 649.258C1230.82 626.26 1199.84 609.708 1165.81 601.293C1131.78 592.878 1095.92 592.903 1061.9 601.365C1027.89 609.827 996.931 626.422 972.202 649.454C947.473 672.486 929.858 701.128 921.158 732.451C912.458 763.774 912.985 796.654 922.686 827.729C932.386 858.804 950.912 886.959 976.369 909.314L1114 777.5L1305.4 827.464Z"/>
</mask>
<path d="M1305.4 827.464C1315.05 796.375 1315.52 763.494 1306.77 732.184C1298.02 700.873 1280.35 672.255 1255.59 649.258C1230.82 626.26 1199.84 609.708 1165.81 601.293C1131.78 592.878 1095.92 592.903 1061.9 601.365C1027.89 609.827 996.931 626.422 972.202 649.454C947.473 672.486 929.858 701.128 921.158 732.451C912.458 763.774 912.985 796.654 922.686 827.729C932.386 858.804 950.912 886.959 976.369 909.314L1114 777.5L1305.4 827.464Z" stroke="white" stroke-opacity="0.35" stroke-width="70" mask="url(#path-4-inside-1_0_1)"/>
<path d="M1355.5 718C1355.5 761.33 1330.67 802.283 1287.04 833.108C1243.46 863.902 1182.34 883.5 1114 883.5C1045.66 883.5 984.54 863.902 940.958 833.108C897.331 802.283 872.5 761.33 872.5 718C872.5 674.67 897.331 633.717 940.958 602.892C984.54 572.098 1045.66 552.5 1114 552.5C1182.34 552.5 1243.46 572.098 1287.04 602.892C1330.67 633.717 1355.5 674.67 1355.5 718Z" stroke="white" stroke-opacity="0.35" stroke-width="35"/>
<defs>
<linearGradient id="paint0_linear_0_1" x1="0" y1="309.349" x2="1447" y2="309.349" gradientUnits="userSpaceOnUse">
<stop stop-color="#A12BFD" stop-opacity="0.32"/>
<stop offset="1" stop-color="#4BEEE5" stop-opacity="0.56"/>
</linearGradient>
<linearGradient id="paint1_linear_0_1" x1="0" y1="299.801" x2="1447" y2="299.801" gradientUnits="userSpaceOnUse">
<stop stop-color="#A12BFD"/>
<stop offset="1" stop-color="#4BEEE5" stop-opacity="0.56"/>
</linearGradient>
<linearGradient id="paint2_linear_0_1" x1="50.0164" y1="207.744" x2="1485.02" y2="375.139" gradientUnits="userSpaceOnUse">
<stop stop-color="#A12BFD"/>
<stop offset="1" stop-color="#4BEEE5" stop-opacity="0.56"/>
</linearGradient>
</defs>
</svg>
