<svg width="1440" height="807" viewBox="0 0 1440 807" fill="none" xmlns="http://www.w3.org/2000/svg">
<circle cx="1328.58" cy="200.584" r="180" transform="rotate(-132.546 1328.58 200.584)" stroke="url(#paint0_linear_729_3334)" stroke-opacity="0.3" stroke-width="40"/>
<path d="M-31 137H1469V605.925C1468.44 605.921 1467.85 605.917 1467.24 605.912C1459.49 605.855 1448.05 605.773 1433.32 605.671C1403.87 605.468 1361.26 605.185 1308.64 604.872C1203.4 604.245 1058.11 603.493 897.912 602.992C582.061 602.003 208.15 601.989 -31 605.834V137Z" stroke="url(#paint1_linear_729_3334)" stroke-opacity="0.5" stroke-width="20"/>
<circle cx="79" cy="599" r="180" stroke="url(#paint2_linear_729_3334)" stroke-opacity="0.8" stroke-width="40"/>
<path d="M219 631.5C219 716.906 147.846 787 59 787C-29.8459 787 -101 716.906 -101 631.5C-101 546.094 -29.8459 476 59 476C147.846 476 219 546.094 219 631.5Z" stroke="url(#paint3_linear_729_3334)" stroke-width="40"/>
<defs>
<linearGradient id="paint0_linear_729_3334" x1="1385.55" y1="57.2987" x2="1465.86" y2="131.003" gradientUnits="userSpaceOnUse">
<stop stop-color="#00FFF1"/>
<stop offset="1" stop-color="#00FFF1" stop-opacity="0"/>
</linearGradient>
<linearGradient id="paint1_linear_729_3334" x1="-41" y1="330.062" x2="1525.98" y2="334.498" gradientUnits="userSpaceOnUse">
<stop stop-color="#AA7AF2"/>
<stop offset="1" stop-color="#4BEEE5"/>
</linearGradient>
<linearGradient id="paint2_linear_729_3334" x1="79" y1="399" x2="79" y2="580.5" gradientUnits="userSpaceOnUse">
<stop stop-color="#00FFF1"/>
<stop offset="1" stop-color="#00FFF1" stop-opacity="0"/>
</linearGradient>
<linearGradient id="paint3_linear_729_3334" x1="59" y1="456" x2="59" y2="593" gradientUnits="userSpaceOnUse">
<stop stop-color="#FCE65A"/>
<stop offset="1" stop-color="#DFCE60" stop-opacity="0"/>
</linearGradient>
</defs>
</svg>
