<svg width="486" height="81" viewBox="0 0 486 81" fill="none" xmlns="http://www.w3.org/2000/svg">
<rect x="2" y="2" width="482" height="77" rx="38.5" fill="url(#paint0_linear_518_2904)" fill-opacity="0.34" stroke="white" stroke-width="4"/>
<rect x="354" y="8" width="124" height="65" rx="32.5" fill="white"/>
<path fill-rule="evenodd" clip-rule="evenodd" d="M443.068 21.7142C444.402 22.8466 444.566 24.8461 443.433 26.18L416.256 58.193C414.058 60.7816 410.211 61.1779 407.532 59.0916L397.43 51.2243C396.049 50.1492 395.801 48.1584 396.877 46.7779C397.952 45.3973 401.119 44.0815 402.5 45.1566L411.5 51.2243L437.5 21.7142C438.632 20.3802 441.734 20.5817 443.068 21.7142Z" fill="#8EE0F0"/>
<path d="M36.032 52.288C34.736 52.288 33.528 52.08 32.408 51.664C31.304 51.232 30.344 50.624 29.528 49.84C28.712 49.056 28.072 48.136 27.608 47.08C27.16 46.024 26.936 44.864 26.936 43.6C26.936 42.336 27.16 41.176 27.608 40.12C28.072 39.064 28.712 38.144 29.528 37.36C30.36 36.576 31.328 35.976 32.432 35.56C33.536 35.128 34.744 34.912 36.056 34.912C37.512 34.912 38.824 35.168 39.992 35.68C41.176 36.176 42.168 36.912 42.968 37.888L40.472 40.192C39.896 39.536 39.256 39.048 38.552 38.728C37.848 38.392 37.08 38.224 36.248 38.224C35.464 38.224 34.744 38.352 34.088 38.608C33.432 38.864 32.864 39.232 32.384 39.712C31.904 40.192 31.528 40.76 31.256 41.416C31 42.072 30.872 42.8 30.872 43.6C30.872 44.4 31 45.128 31.256 45.784C31.528 46.44 31.904 47.008 32.384 47.488C32.864 47.968 33.432 48.336 34.088 48.592C34.744 48.848 35.464 48.976 36.248 48.976C37.08 48.976 37.848 48.816 38.552 48.496C39.256 48.16 39.896 47.656 40.472 46.984L42.968 49.288C42.168 50.264 41.176 51.008 39.992 51.52C38.824 52.032 37.504 52.288 36.032 52.288ZM55.802 52.288C54.474 52.288 53.242 52.072 52.106 51.64C50.986 51.208 50.01 50.6 49.178 49.816C48.362 49.032 47.722 48.112 47.258 47.056C46.81 46 46.586 44.848 46.586 43.6C46.586 42.352 46.81 41.2 47.258 40.144C47.722 39.088 48.37 38.168 49.202 37.384C50.034 36.6 51.01 35.992 52.13 35.56C53.25 35.128 54.466 34.912 55.778 34.912C57.106 34.912 58.322 35.128 59.426 35.56C60.546 35.992 61.514 36.6 62.33 37.384C63.162 38.168 63.81 39.088 64.274 40.144C64.738 41.184 64.97 42.336 64.97 43.6C64.97 44.848 64.738 46.008 64.274 47.08C63.81 48.136 63.162 49.056 62.33 49.84C61.514 50.608 60.546 51.208 59.426 51.64C58.322 52.072 57.114 52.288 55.802 52.288ZM55.778 48.976C56.53 48.976 57.218 48.848 57.842 48.592C58.482 48.336 59.042 47.968 59.522 47.488C60.002 47.008 60.37 46.44 60.626 45.784C60.898 45.128 61.034 44.4 61.034 43.6C61.034 42.8 60.898 42.072 60.626 41.416C60.37 40.76 60.002 40.192 59.522 39.712C59.058 39.232 58.506 38.864 57.866 38.608C57.226 38.352 56.53 38.224 55.778 38.224C55.026 38.224 54.33 38.352 53.69 38.608C53.066 38.864 52.514 39.232 52.034 39.712C51.554 40.192 51.178 40.76 50.906 41.416C50.65 42.072 50.522 42.8 50.522 43.6C50.522 44.384 50.65 45.112 50.906 45.784C51.178 46.44 51.546 47.008 52.01 47.488C52.49 47.968 53.05 48.336 53.69 48.592C54.33 48.848 55.026 48.976 55.778 48.976ZM70.292 52V35.2H73.508L80.66 47.056H78.956L85.988 35.2H89.18L89.228 52H85.58L85.556 40.792H86.228L80.612 50.224H78.86L73.124 40.792H73.94V52H70.292ZM95.6139 52V35.2H98.8299L105.982 47.056H104.278L111.31 35.2H114.502L114.55 52H110.902L110.878 40.792H111.55L105.934 50.224H104.182L98.4459 40.792H99.2619V52H95.6139ZM128.4 52.288C126.016 52.288 124.152 51.624 122.808 50.296C121.464 48.968 120.792 47.072 120.792 44.608V35.2H124.68V44.464C124.68 46.064 125.008 47.216 125.664 47.92C126.32 48.624 127.24 48.976 128.424 48.976C129.608 48.976 130.528 48.624 131.184 47.92C131.84 47.216 132.168 46.064 132.168 44.464V35.2H136.008V44.608C136.008 47.072 135.336 48.968 133.992 50.296C132.648 51.624 130.784 52.288 128.4 52.288ZM142.25 52V35.2H145.466L155.378 47.296H153.818V35.2H157.658V52H154.466L144.53 39.904H146.09V52H142.25ZM164.033 52V35.2H167.921V52H164.033ZM177.788 52V38.368H172.412V35.2H187.052V38.368H181.676V52H177.788ZM195.391 52V45.136L196.279 47.488L188.887 35.2H193.015L198.679 44.632H196.303L201.991 35.2H205.807L198.415 47.488L199.279 45.136V52H195.391ZM222.127 52.288C220.991 52.288 219.943 52.08 218.983 51.664C218.039 51.232 217.263 50.624 216.655 49.84L218.815 47.248C219.279 47.856 219.767 48.32 220.279 48.64C220.791 48.944 221.343 49.096 221.935 49.096C223.519 49.096 224.311 48.168 224.311 46.312V38.32H218.407V35.2H228.175V46.096C228.175 48.176 227.663 49.728 226.639 50.752C225.615 51.776 224.111 52.288 222.127 52.288ZM242.575 52.288C241.247 52.288 240.015 52.072 238.879 51.64C237.759 51.208 236.783 50.6 235.951 49.816C235.135 49.032 234.495 48.112 234.031 47.056C233.583 46 233.359 44.848 233.359 43.6C233.359 42.352 233.583 41.2 234.031 40.144C234.495 39.088 235.143 38.168 235.975 37.384C236.807 36.6 237.783 35.992 238.903 35.56C240.023 35.128 241.239 34.912 242.551 34.912C243.879 34.912 245.095 35.128 246.199 35.56C247.319 35.992 248.287 36.6 249.103 37.384C249.935 38.168 250.583 39.088 251.047 40.144C251.511 41.184 251.743 42.336 251.743 43.6C251.743 44.848 251.511 46.008 251.047 47.08C250.583 48.136 249.935 49.056 249.103 49.84C248.287 50.608 247.319 51.208 246.199 51.64C245.095 52.072 243.887 52.288 242.575 52.288ZM242.551 48.976C243.303 48.976 243.991 48.848 244.615 48.592C245.255 48.336 245.815 47.968 246.295 47.488C246.775 47.008 247.143 46.44 247.399 45.784C247.671 45.128 247.807 44.4 247.807 43.6C247.807 42.8 247.671 42.072 247.399 41.416C247.143 40.76 246.775 40.192 246.295 39.712C245.831 39.232 245.279 38.864 244.639 38.608C243.999 38.352 243.303 38.224 242.551 38.224C241.799 38.224 241.103 38.352 240.463 38.608C239.839 38.864 239.287 39.232 238.807 39.712C238.327 40.192 237.951 40.76 237.679 41.416C237.423 42.072 237.295 42.8 237.295 43.6C237.295 44.384 237.423 45.112 237.679 45.784C237.951 46.44 238.319 47.008 238.783 47.488C239.263 47.968 239.823 48.336 240.463 48.592C241.103 48.848 241.799 48.976 242.551 48.976ZM257.065 52V35.2H260.953V52H257.065ZM267.34 52V35.2H270.556L280.468 47.296H278.908V35.2H282.748V52H279.556L269.62 39.904H271.18V52H267.34ZM292.699 41.968H300.787V44.992H292.699V41.968ZM292.987 48.88H302.131V52H289.123V35.2H301.819V38.32H292.987V48.88ZM307.625 52V35.2H315.257C317.081 35.2 318.689 35.552 320.081 36.256C321.473 36.944 322.561 37.912 323.345 39.16C324.129 40.408 324.521 41.888 324.521 43.6C324.521 45.296 324.129 46.776 323.345 48.04C322.561 49.288 321.473 50.264 320.081 50.968C318.689 51.656 317.081 52 315.257 52H307.625ZM311.513 48.808H315.065C316.185 48.808 317.153 48.6 317.969 48.184C318.801 47.752 319.441 47.144 319.889 46.36C320.353 45.576 320.585 44.656 320.585 43.6C320.585 42.528 320.353 41.608 319.889 40.84C319.441 40.056 318.801 39.456 317.969 39.04C317.153 38.608 316.185 38.392 315.065 38.392H311.513V48.808Z" fill="white"/>
<defs>
<linearGradient id="paint0_linear_518_2904" x1="243" y1="6.54175" x2="243" y2="81" gradientUnits="userSpaceOnUse">
<stop stop-color="#661BC9"/>
<stop offset="1" stop-color="white" stop-opacity="0"/>
</linearGradient>
</defs>
</svg>
