<svg width="307" height="52" viewBox="0 0 307 52" fill="none" xmlns="http://www.w3.org/2000/svg">
<path d="M8.1511 42.9966L4.10832 29.593L7.2103 28.6574L10.4907 39.5335L17.2117 37.5063L17.974 40.0338L8.1511 42.9966Z" fill="white"/>
<path d="M31.5228 36.364L30.9932 34.3318L30.6836 33.9372L29.7353 30.2987C29.5671 29.6536 29.236 29.2025 28.7419 28.9455C28.2607 28.6851 27.6136 28.6609 26.8008 28.8727C26.246 29.0173 25.7212 29.2506 25.2264 29.5724C24.7411 29.8781 24.35 30.228 24.0532 30.6223L22.4196 28.7952C22.883 28.2473 23.4862 27.7594 24.2289 27.3316C24.9717 26.9037 25.756 26.5822 26.5817 26.367C28.1687 25.9533 29.4984 26.0064 30.5708 26.526C31.6432 27.0457 32.3862 28.099 32.7998 29.686L34.3484 35.6275L31.5228 36.364ZM28.3892 37.346C27.5764 37.5579 26.8443 37.604 26.1931 37.4844C25.5385 37.3519 24.9942 37.0873 24.5601 36.6906C24.126 36.2939 23.8316 35.7988 23.6769 35.2053C23.5155 34.586 23.5227 34.0054 23.6984 33.4636C23.887 32.9184 24.2766 32.4311 24.8674 32.0015C25.4548 31.5591 26.2775 31.2 27.3355 30.9242L30.103 30.2029L30.562 31.964L28.1235 32.5996C27.4139 32.7846 26.9539 33.0285 26.7434 33.3313C26.5459 33.6308 26.4926 33.9548 26.5834 34.3031C26.6842 34.6902 26.9133 34.9612 27.2706 35.1161C27.6374 35.2547 28.0853 35.2551 28.6143 35.1172C29.1175 34.9861 29.5388 34.7522 29.8783 34.4157C30.2144 34.0664 30.4122 33.6359 30.4718 33.1243L31.2994 34.3967C31.255 35.1248 30.9878 35.7387 30.498 36.2384C30.0082 36.7381 29.3053 37.1073 28.3892 37.346Z" fill="white"/>
<path d="M46.9752 32.8317C46.1026 33.0231 45.2841 33.0252 44.5195 32.838C43.768 32.6479 43.1277 32.2492 42.5986 31.6418C42.0667 31.0214 41.6821 30.1707 41.445 29.0897L40.1423 23.1509L43.1898 22.4824L44.394 27.9719C44.5854 28.8445 44.9091 29.4491 45.3652 29.7859C45.8315 30.1068 46.4032 30.193 47.0804 30.0444C47.5493 29.9416 47.9446 29.7525 48.2664 29.4771C48.5854 29.1888 48.8033 28.8133 48.9203 28.3509C49.0344 27.8754 49.0215 27.3185 48.8815 26.6804L47.7416 21.4839L50.7891 20.8154L53.0946 31.3256L50.2034 31.9598L49.5691 29.0685L50.2809 29.7928C50.0892 30.5993 49.6897 31.2671 49.0823 31.7962C48.485 32.3094 47.7827 32.6546 46.9752 32.8317Z" fill="white"/>
<path d="M65.541 17.853C66.3812 17.7037 67.1598 17.7414 67.8768 17.9661C68.6047 18.1753 69.2207 18.594 69.7251 19.2221C70.2271 19.8371 70.5737 20.6829 70.765 21.7593L71.8427 27.8243L68.7708 28.3702L67.7771 22.7778C67.6255 21.9245 67.3231 21.3282 66.8701 20.9888C66.4302 20.6472 65.869 20.537 65.1863 20.6583C64.7006 20.7446 64.2795 20.9278 63.923 21.2078C63.5773 21.4724 63.3301 21.8345 63.1816 22.2943C63.0462 22.7517 63.0368 23.3086 63.1535 23.965L64.0842 29.2029L61.0123 29.7488L59.1299 19.1547L62.0639 18.6334L62.5853 21.5674L61.8764 20.7792C62.1312 20.0027 62.5792 19.3611 63.2204 18.8544C63.8617 18.3478 64.6352 18.014 65.541 17.853Z" fill="white"/>
<path d="M84.8378 26.0477C83.6888 26.2072 82.6332 26.1181 81.671 25.7805C80.707 25.4296 79.9097 24.8739 79.2792 24.1134C78.6619 23.351 78.2799 22.4415 78.1333 21.385C77.9849 20.3152 78.1048 19.3361 78.493 18.4476C78.8926 17.5441 79.5094 16.799 80.3433 16.2121C81.1754 15.6121 82.166 15.2323 83.315 15.0729C84.4375 14.9171 85.4478 15.0192 86.3458 15.3792C87.242 15.726 87.9487 16.3077 88.4658 17.1244L86.2474 18.7447C85.9005 18.2813 85.4992 17.9601 85.0436 17.781C84.6012 17.6001 84.1356 17.5435 83.647 17.6113C83.1187 17.6846 82.6598 17.8695 82.2701 18.1658C81.8805 18.4622 81.5905 18.8457 81.4 19.3164C81.2228 19.7852 81.1772 20.3299 81.2633 20.9506C81.3495 21.5714 81.5416 22.0831 81.8398 22.486C82.1512 22.887 82.5347 23.177 82.9903 23.3561C83.4459 23.5352 83.9379 23.5881 84.4661 23.5148C84.9548 23.447 85.3883 23.2724 85.7665 22.9911C86.1561 22.6947 86.4539 22.2698 86.6598 21.7162L89.2382 22.6911C88.9611 23.6045 88.4396 24.3567 87.6735 24.9476C86.9056 25.5252 85.9604 25.892 84.8378 26.0477Z" fill="white"/>
<path d="M101.857 12.889C102.706 12.8038 103.48 12.9005 104.177 13.179C104.887 13.4428 105.47 13.907 105.925 14.5716C106.379 15.2229 106.66 16.0925 106.769 17.1804L107.384 23.3097L104.279 23.6209L103.713 17.9692C103.626 17.1068 103.37 16.4893 102.944 16.1166C102.532 15.7426 101.98 15.5901 101.29 15.6593C100.8 15.7085 100.366 15.8592 99.989 16.1113C99.6242 16.3489 99.3503 16.6912 99.1673 17.1384C98.9976 17.5842 98.946 18.1388 99.0125 18.8021L99.5431 24.0956L96.4387 24.4068L94.9586 9.64078L98.063 9.3296L98.7672 16.3544L97.9809 15.5287C98.2938 14.7737 98.7892 14.168 99.467 13.7114C100.145 13.2549 100.942 12.9807 101.857 12.889Z" fill="white"/>
<path d="M129.898 21.8841L129.689 16.1679L130.5 18.0995L123.969 8.09186L127.407 7.96594L132.411 15.6479L130.433 15.7204L134.882 7.69214L138.06 7.57574L132.279 18.0344L132.926 16.0493L133.136 21.7655L129.898 21.8841Z" fill="white"/>
<path d="M150.224 21.6611C149.077 21.6571 148.058 21.4135 147.166 20.9304C146.288 20.4474 145.59 19.7916 145.073 18.9632C144.569 18.1214 144.319 17.1672 144.323 16.1005C144.327 15.0205 144.584 14.0681 145.093 13.2432C145.616 12.405 146.318 11.7541 147.2 11.2905C148.095 10.8136 149.116 10.5771 150.262 10.5811C151.396 10.5851 152.408 10.8286 153.3 11.3117C154.192 11.7814 154.889 12.4305 155.393 13.259C155.897 14.0874 156.147 15.0483 156.143 16.1416C156.139 17.2082 155.883 18.1607 155.373 18.9989C154.864 19.8238 154.161 20.4747 153.266 20.9516C152.371 21.4285 151.357 21.665 150.224 21.6611ZM150.233 19.1011C150.753 19.1029 151.22 18.9845 151.634 18.7459C152.048 18.5074 152.376 18.1685 152.618 17.7293C152.859 17.2768 152.981 16.7439 152.983 16.1306C152.985 15.5039 152.867 14.9702 152.629 14.5294C152.39 14.0885 152.065 13.7474 151.652 13.506C151.24 13.2645 150.773 13.1429 150.253 13.1411C149.733 13.1393 149.266 13.2577 148.852 13.4962C148.438 13.7348 148.104 14.0736 147.849 14.5128C147.607 14.9519 147.485 15.4848 147.483 16.1115C147.481 16.7248 147.599 17.2586 147.838 17.7127C148.089 18.1536 148.422 18.4948 148.834 18.7362C149.247 18.9776 149.713 19.0993 150.233 19.1011Z" fill="white"/>
<path d="M168.544 22.0626C167.652 22.0237 166.86 21.8157 166.169 21.4386C165.492 21.0621 164.975 20.5124 164.62 19.7896C164.265 19.0534 164.111 18.1325 164.159 17.0269L164.424 10.9527L167.541 11.0885L167.297 16.7032C167.258 17.5957 167.415 18.2632 167.77 18.7057C168.138 19.1355 168.669 19.3655 169.361 19.3957C169.841 19.4166 170.271 19.3352 170.653 19.1517C171.035 18.9548 171.342 18.6479 171.574 18.2309C171.806 17.8006 171.937 17.2591 171.965 16.6064L172.197 11.2914L175.314 11.4273L174.845 22.1771L171.888 22.0482L172.017 19.091L172.519 19.9737C172.127 20.704 171.569 21.2469 170.847 21.6024C170.138 21.9452 169.37 22.0986 168.544 22.0626Z" fill="white"/>
<path d="M182.912 22.7082L183.754 11.9813L186.725 12.2145L186.487 15.2452L186.137 14.335C186.516 13.6024 187.073 13.071 187.807 12.7409C188.543 12.3974 189.416 12.2654 190.426 12.3447L190.201 15.2159C190.069 15.1921 189.95 15.1761 189.844 15.1677C189.738 15.1461 189.626 15.1306 189.506 15.1212C188.655 15.0544 187.945 15.246 187.375 15.6961C186.819 16.1339 186.5 16.8646 186.42 17.8881L186.022 22.9525L182.912 22.7082Z" fill="white"/>
<path d="M214.485 26.3044C213.415 26.1564 212.442 25.8468 211.565 25.3756C210.703 24.8929 209.98 24.2814 209.396 23.5411C208.812 22.8007 208.388 21.9682 208.126 21.0435C207.877 20.1207 207.824 19.1376 207.968 18.0942C208.113 17.0508 208.43 16.1188 208.92 15.2982C209.424 14.4795 210.057 13.7931 210.82 13.2391C211.597 12.687 212.464 12.3022 213.423 12.0848C214.384 11.8543 215.406 11.8139 216.489 11.9637C217.691 12.1299 218.744 12.491 219.65 13.047C220.571 13.5917 221.306 14.3125 221.855 15.2095L219.531 16.8264C219.131 16.2191 218.658 15.7432 218.113 15.3987C217.571 15.0409 216.956 14.8146 216.269 14.7196C215.622 14.6301 215.013 14.6535 214.442 14.79C213.871 14.9264 213.361 15.1653 212.91 15.5067C212.458 15.8482 212.083 16.2741 211.784 16.7846C211.498 17.2968 211.309 17.8832 211.217 18.5436C211.126 19.2039 211.149 19.8195 211.285 20.3902C211.435 20.9628 211.68 21.4746 212.022 21.9256C212.363 22.3767 212.79 22.7453 213.302 23.0315C213.815 23.3177 214.394 23.5056 215.041 23.5951C215.728 23.6901 216.38 23.6457 216.998 23.4619C217.618 23.2649 218.203 22.922 218.756 22.433L220.553 24.6199C219.781 25.3342 218.877 25.8351 217.842 26.1226C216.819 26.4119 215.7 26.4725 214.485 26.3044Z" fill="white"/>
<path d="M233.858 29.1865L234.229 27.1195L234.113 26.6314L234.777 22.9305C234.895 22.2743 234.784 21.726 234.443 21.2855C234.115 20.8474 233.538 20.5542 232.711 20.4059C232.146 20.3046 231.572 20.2964 230.988 20.3813C230.419 20.4553 229.918 20.6092 229.483 20.8427L228.765 18.4992C229.416 18.196 230.168 18.0058 231.022 17.9287C231.875 17.8515 232.722 17.8883 233.562 18.039C235.176 18.3286 236.361 18.9341 237.117 19.8554C237.873 20.7767 238.106 22.0444 237.817 23.6587L236.732 29.7022L233.858 29.1865ZM230.601 28.7648C229.775 28.6164 229.091 28.3515 228.55 27.9699C228.011 27.5753 227.628 27.1069 227.4 26.5648C227.172 26.0227 227.112 25.4498 227.22 24.8461C227.333 24.2162 227.583 23.692 227.97 23.2737C228.37 22.8578 228.928 22.5786 229.644 22.4362C230.363 22.2807 231.26 22.2995 232.336 22.4926L235.151 22.9976L234.83 24.789L232.35 24.344C231.628 24.2145 231.108 24.2431 230.79 24.4299C230.485 24.6191 230.301 24.8908 230.237 25.2451C230.167 25.6389 230.261 25.9809 230.521 26.2713C230.795 26.5509 231.202 26.739 231.74 26.8355C232.252 26.9273 232.732 26.8916 233.182 26.7284C233.633 26.552 233.993 26.2441 234.262 25.8046L234.48 27.3068C234.134 27.9492 233.635 28.3946 232.98 28.643C232.326 28.8913 231.533 28.9319 230.601 28.7648Z" fill="white"/>
<path d="M244.976 31.3491L247.232 20.8284L250.146 21.4533L249.508 24.4257L249.282 23.4772C249.755 22.8012 250.377 22.3483 251.149 22.1184C251.924 21.8755 252.806 21.8603 253.797 22.0728L253.193 24.8887C253.066 24.8477 252.95 24.8161 252.845 24.7937C252.744 24.7583 252.635 24.728 252.517 24.7028C251.683 24.5239 250.953 24.6197 250.328 24.9902C249.719 25.3505 249.307 26.0325 249.092 27.0364L248.026 32.0034L244.976 31.3491Z" fill="white"/>
<path d="M263.713 35.8159C262.523 35.5184 261.534 35.0235 260.745 34.3314C259.969 33.6426 259.435 32.8357 259.144 31.9109C258.856 30.973 258.842 29.9867 259.101 28.9519C259.363 27.9042 259.833 27.0392 260.512 26.3569C261.208 25.6649 262.032 25.1976 262.986 24.9551C263.943 24.6997 264.952 24.7046 266.013 24.9699C267.035 25.2254 267.898 25.6749 268.603 26.3185C269.324 26.9524 269.822 27.7366 270.097 28.6712C270.375 29.5928 270.373 30.6163 270.092 31.7417C270.063 31.8581 270.023 31.9923 269.971 32.1443C269.922 32.2833 269.875 32.4159 269.83 32.542L261.351 30.4218L261.793 28.6562L268.681 30.3786L267.385 30.6113C267.521 30.068 267.529 29.5684 267.41 29.1124C267.29 28.6565 267.064 28.27 266.731 27.9531C266.401 27.6232 265.977 27.3936 265.46 27.2642C264.942 27.1348 264.454 27.1364 263.995 27.269C263.552 27.3918 263.169 27.6327 262.845 27.9917C262.525 28.3377 262.296 28.7888 262.156 29.345L262.04 29.8107C261.898 30.3798 261.894 30.915 262.03 31.4162C262.182 31.9078 262.455 32.3266 262.85 32.6726C263.261 33.009 263.776 33.2548 264.397 33.41C264.953 33.5491 265.46 33.5863 265.916 33.5217C266.384 33.4602 266.836 33.305 267.269 33.0561L268.443 35.205C267.828 35.6286 267.122 35.8986 266.323 36.015C265.527 36.1184 264.657 36.052 263.713 35.8159Z" fill="white"/>
<path d="M280.999 40.5C279.821 40.1574 278.851 39.6254 278.089 38.9038C277.339 38.186 276.837 37.3595 276.581 36.4242C276.329 35.4762 276.352 34.49 276.65 33.4658C276.952 32.4287 277.455 31.5822 278.159 30.9262C278.88 30.2611 279.722 29.8255 280.685 29.6194C281.651 29.4005 282.659 29.4437 283.709 29.749C284.72 30.0432 285.566 30.5252 286.246 31.195C286.942 31.8558 287.41 32.6584 287.649 33.6027C287.892 34.5343 287.852 35.557 287.528 36.6708C287.494 36.7861 287.449 36.9186 287.391 37.0685C287.338 37.2056 287.286 37.3364 287.236 37.4607L278.843 35.0201L279.352 33.2725L286.169 35.2551L284.866 35.4385C285.022 34.9008 285.049 34.4018 284.947 33.9417C284.845 33.4815 284.634 33.0867 284.313 32.7574C283.996 32.4152 283.581 32.1697 283.069 32.0207C282.557 31.8718 282.069 31.8548 281.605 31.9699C281.158 32.0758 280.765 32.302 280.429 32.6484C280.096 32.982 279.849 33.4241 279.689 33.9746L279.555 34.4355C279.391 34.9988 279.367 35.5335 279.484 36.0395C279.617 36.5365 279.874 36.9654 280.256 37.3261C280.653 37.6778 281.159 37.943 281.774 38.1217C282.324 38.2818 282.829 38.3383 283.287 38.291C283.758 38.2474 284.214 38.1094 284.657 37.8771L285.748 40.069C285.118 40.469 284.402 40.712 283.599 40.7979C282.8 40.8711 281.933 40.7718 280.999 40.5Z" fill="white"/>
<path d="M293.081 44.0194L296.433 33.7947L299.265 34.723L298.318 37.6117L298.193 36.6447C298.734 36.0222 299.4 35.6372 300.192 35.4899C300.988 35.33 301.868 35.4078 302.831 35.7234L301.933 38.4602C301.811 38.406 301.699 38.3622 301.598 38.329C301.5 38.2831 301.395 38.2415 301.281 38.2041C300.47 37.9383 299.734 37.9567 299.074 38.2594C298.43 38.5535 297.948 39.1884 297.629 40.164L296.046 44.9912L293.081 44.0194Z" fill="white"/>
</svg>
