<svg width="306" height="48" viewBox="0 0 306 48" fill="none" xmlns="http://www.w3.org/2000/svg">
<path d="M7.24915 41.9337L3.0752 28.5704L6.16786 27.6045L9.55472 38.4478L16.2555 36.3549L17.0426 38.8748L7.24915 41.9337Z" fill="#A12BFD"/>
<path d="M30.5546 35.0722L30.0051 33.0454L29.6917 32.6538L28.7077 29.0248C28.5333 28.3814 28.1977 27.9336 27.7011 27.6814C27.2173 27.4257 26.5701 27.4078 25.7594 27.6276C25.206 27.7777 24.6835 28.016 24.1919 28.3427C23.7096 28.6531 23.322 29.0069 23.0291 29.404L21.3776 27.5931C21.8357 27.0406 22.434 26.5468 23.1725 26.1118C23.9111 25.6767 24.6922 25.3475 25.5158 25.1242C27.0986 24.695 28.4288 24.735 29.5062 25.2441C30.5836 25.7532 31.3369 26.7992 31.7661 28.3821L33.3729 34.3081L30.5546 35.0722ZM27.4308 36.085C26.62 36.3048 25.8885 36.3581 25.2361 36.2448C24.5803 36.1187 24.0334 35.8595 23.5954 35.4671C23.1575 35.0747 22.8583 34.5825 22.6978 33.9905C22.5303 33.3728 22.5317 32.7922 22.7021 32.2487C22.8853 31.7017 23.2702 31.2105 23.8567 30.7752C24.4398 30.327 25.2589 29.9599 26.3141 29.6738L29.0745 28.9253L29.5508 30.6819L27.1186 31.3414C26.4108 31.5333 25.9532 31.7817 25.7457 32.0866C25.5512 32.388 25.501 32.7124 25.5952 33.0599C25.6999 33.446 25.9316 33.7147 26.2904 33.8661C26.6585 34.0011 27.1064 33.9971 27.6341 33.854C28.1359 33.718 28.5549 33.48 28.8911 33.1402C29.2237 32.7876 29.4173 32.3552 29.4718 31.843L30.3119 33.1072C30.2746 33.8357 30.0135 34.4522 29.5286 34.9567C29.0437 35.4611 28.3445 35.8372 27.4308 36.085Z" fill="#A12BFD"/>
<path d="M45.9718 31.3888C45.1011 31.5887 44.2826 31.5988 43.5163 31.4191C42.7629 31.2364 42.1188 30.844 41.5837 30.2418C41.0457 29.6266 40.6529 28.7797 40.4052 27.7012L39.0443 21.7754L42.0851 21.0771L43.343 26.5545C43.543 27.4252 43.8726 28.0266 44.332 28.3589C44.8014 28.6752 45.3739 28.7558 46.0497 28.6006C46.5175 28.4931 46.911 28.3002 47.2301 28.0217C47.5462 27.7302 47.7604 27.3527 47.8729 26.8891C47.9823 26.4125 47.9639 25.8558 47.8177 25.2191L46.6269 20.034L49.6678 19.3357L52.0761 29.8227L49.1912 30.4852L48.5287 27.6003L49.2475 28.3177C49.0637 29.126 48.6708 29.7976 48.0686 30.3326C47.4764 30.8517 46.7775 31.2037 45.9718 31.3888Z" fill="#A12BFD"/>
<path d="M64.3895 16.2287C65.2282 16.0712 66.0071 16.1013 66.7263 16.3189C67.4562 16.521 68.0763 16.9336 68.5868 17.5568C69.0948 18.1668 69.4497 19.0091 69.6515 20.0837L70.7886 26.1378L67.7222 26.7137L66.6737 21.1314C66.5138 20.2796 66.2056 19.6863 65.7493 19.3514C65.3061 19.0141 64.7438 18.9094 64.0624 19.0374C63.5775 19.1285 63.1582 19.3158 62.8044 19.5993C62.4613 19.8672 62.2178 20.2318 62.0738 20.6929C61.9429 21.1516 61.9389 21.7086 62.062 22.3638L63.044 27.5924L59.9776 28.1683L57.9914 17.5932L60.9202 17.0431L61.4703 19.9719L60.7538 19.1908C61.0009 18.4118 61.4426 17.7658 62.0789 17.2529C62.7151 16.7399 63.4853 16.3986 64.3895 16.2287Z" fill="#A12BFD"/>
<path d="M83.7659 24.2341C82.6185 24.4047 81.5621 24.326 80.5966 23.9978C79.6292 23.6565 78.8265 23.1086 78.1886 22.3543C77.5638 21.598 77.173 20.6923 77.016 19.6372C76.8571 18.569 76.9674 17.5887 77.3469 16.6965C77.7377 15.7892 78.3471 15.038 79.1752 14.443C80.0014 13.8348 80.9882 13.4454 82.1355 13.2747C83.2565 13.1079 84.2678 13.2001 85.1693 13.5513C86.0688 13.8893 86.7811 14.464 87.3063 15.2756L85.1039 16.9175C84.7524 16.4576 84.348 16.1403 83.8906 15.9657C83.4465 15.7891 82.9804 15.7372 82.4925 15.8097C81.9649 15.8882 81.5078 16.0775 81.1211 16.3777C80.7344 16.6779 80.4481 17.0642 80.2623 17.5367C80.0896 18.0072 80.0494 18.5524 80.1416 19.1722C80.2338 19.7921 80.431 20.302 80.7331 20.7019C81.0485 21.0998 81.4348 21.3861 81.8921 21.5607C82.3495 21.7353 82.8419 21.7833 83.3694 21.7049C83.8574 21.6323 84.2891 21.4535 84.6646 21.1685C85.0513 20.8683 85.3449 20.4404 85.5453 19.8849L88.1332 20.8344C87.8651 21.7505 87.3509 22.5078 86.5907 23.1061C85.8285 23.6913 84.8869 24.0673 83.7659 24.2341Z" fill="#A12BFD"/>
<path d="M100.655 10.9091C101.503 10.8157 102.278 10.9047 102.978 11.1763C103.691 11.4332 104.278 11.8917 104.739 12.5518C105.2 13.1986 105.49 14.0654 105.609 15.1522L106.284 21.2751L103.183 21.6167L102.561 15.9709C102.466 15.1094 102.204 14.4944 101.774 14.1259C101.358 13.7559 100.805 13.6089 100.116 13.6848C99.6253 13.7388 99.193 13.8938 98.8188 14.1496C98.4563 14.3907 98.1858 14.7358 98.0072 15.1847C97.8419 15.6321 97.7957 16.1872 97.8687 16.8499L98.4512 22.1379L95.3499 22.4795L93.7252 7.72868L96.8264 7.38708L97.5994 14.4046L96.8051 13.5867C97.1106 12.8287 97.6 12.2181 98.2733 11.7549C98.9467 11.2918 99.7406 11.0098 100.655 10.9091Z" fill="#A12BFD"/>
<path d="M128.783 19.6289L128.518 13.915L129.348 15.8386L122.719 5.89542L126.156 5.73582L131.235 13.3684L129.257 13.4602L133.628 5.38877L136.804 5.24123L131.126 15.756L131.754 13.7647L132.02 19.4786L128.783 19.6289Z" fill="#A12BFD"/>
<path d="M149.106 19.2067C147.959 19.214 146.938 18.9804 146.041 18.5061C145.158 18.0317 144.454 17.3828 143.929 16.5594C143.417 15.7227 143.158 14.7709 143.151 13.7043C143.144 12.6243 143.391 11.6694 143.893 10.8395C144.408 9.99627 145.103 9.33852 145.98 8.86629C146.871 8.38065 147.889 8.1342 149.036 8.12694C150.169 8.11977 151.184 8.35335 152.08 8.82769C152.977 9.28869 153.681 9.93091 154.193 10.7544C154.704 11.5778 154.964 12.5362 154.971 13.6295C154.978 14.6961 154.73 15.6511 154.229 16.4942C153.727 17.3241 153.032 17.9819 152.141 18.4675C151.251 18.9531 150.239 19.1995 149.106 19.2067ZM149.09 16.6468C149.61 16.6435 150.076 16.5205 150.487 16.2779C150.899 16.0353 151.224 15.6932 151.461 15.2517C151.698 14.7969 151.815 14.2628 151.811 13.6495C151.807 13.0228 151.683 12.4903 151.441 12.0518C151.198 11.6133 150.869 11.2754 150.454 11.038C150.039 10.8006 149.572 10.6836 149.052 10.6869C148.532 10.6902 148.066 10.8131 147.654 11.0557C147.243 11.2984 146.911 11.6405 146.661 12.0821C146.424 12.5236 146.307 13.0576 146.311 13.6843C146.315 14.2976 146.438 14.8302 146.681 15.282C146.937 15.7204 147.273 16.0583 147.687 16.2956C148.102 16.533 148.57 16.6501 149.09 16.6468Z" fill="#A12BFD"/>
<path d="M167.429 19.4287C166.536 19.3985 165.743 19.1983 165.048 18.828C164.367 18.4581 163.845 17.9135 163.482 17.1942C163.12 16.4615 162.958 15.5422 162.995 14.4362L163.2 8.35964L166.318 8.46493L166.129 14.0817C166.099 14.9746 166.263 15.6405 166.622 16.0795C166.994 16.5057 167.527 16.7304 168.22 16.7538C168.7 16.77 169.129 16.6845 169.509 16.4972C169.89 16.2966 170.193 15.9867 170.421 15.5674C170.649 15.1349 170.774 14.5921 170.796 13.9392L170.976 8.6222L174.094 8.7275L173.731 19.4814L170.773 19.3815L170.872 16.4232L171.383 17.3009C170.998 18.035 170.446 18.5833 169.727 18.9459C169.021 19.2957 168.255 19.4566 167.429 19.4287Z" fill="#A12BFD"/>
<path d="M181.802 19.9334L182.54 9.19869L185.513 9.40285L185.304 12.4357L184.946 11.529C185.317 10.7927 185.868 10.2559 186.6 9.91855C187.332 9.56791 188.204 9.4273 189.215 9.49672L189.018 12.37C188.885 12.3475 188.766 12.3326 188.66 12.3253C188.554 12.3047 188.442 12.2903 188.322 12.2821C187.471 12.2236 186.762 12.4222 186.196 12.8778C185.644 13.3211 185.333 14.0548 185.263 15.0791L184.915 20.1472L181.802 19.9334Z" fill="#A12BFD"/>
<path d="M213.409 23.2199C212.338 23.0824 211.362 22.7824 210.48 22.3197C209.613 21.8455 208.884 21.2412 208.293 20.5066C207.702 19.772 207.27 18.9437 206.999 18.0216C206.741 17.1013 206.678 16.1187 206.813 15.0739C206.947 14.0292 207.255 13.0941 207.737 12.2688C208.233 11.4452 208.859 10.7526 209.617 10.1912C210.388 9.63142 211.252 9.23817 212.208 9.01143C213.167 8.77147 214.188 8.72107 215.272 8.86024C216.476 9.01469 217.533 9.36546 218.444 9.91255C219.37 10.4481 220.112 11.1617 220.67 12.0533L218.362 13.6929C217.956 13.0896 217.479 12.6183 216.931 12.2791C216.384 11.9267 215.767 11.7064 215.08 11.6182C214.432 11.535 213.823 11.5644 213.254 11.7064C212.684 11.8484 212.176 12.0924 211.728 12.4382C211.28 12.784 210.909 13.2136 210.615 13.727C210.334 14.2421 210.151 14.8302 210.066 15.4915C209.981 16.1527 210.01 16.768 210.152 17.3374C210.307 17.9085 210.557 18.4178 210.903 18.8655C211.249 19.3131 211.679 19.6776 212.195 19.9588C212.71 20.2399 213.291 20.4221 213.939 20.5053C214.627 20.5935 215.279 20.5427 215.894 20.3529C216.512 20.1499 217.094 19.8012 217.642 19.3068L219.461 21.476C218.696 22.1978 217.797 22.7076 216.764 23.0052C215.744 23.3045 214.626 23.3761 213.409 23.2199Z" fill="#A12BFD"/>
<path d="M232.81 25.912L233.161 23.8414L233.04 23.3545L233.668 19.6473C233.779 18.99 233.662 18.4428 233.317 18.0057C232.985 17.5708 232.405 17.2832 231.577 17.143C231.011 17.0473 230.437 17.0447 229.854 17.1353C229.286 17.2149 228.786 17.3737 228.353 17.6115L227.613 15.2751C228.26 14.9655 229.01 14.768 229.863 14.6825C230.716 14.597 231.563 14.6255 232.405 14.7679C234.022 15.0417 235.213 15.6355 235.977 16.5494C236.742 17.4632 236.988 18.7286 236.714 20.3456L235.689 26.3994L232.81 25.912ZM229.549 25.5222C228.721 25.382 228.035 25.1237 227.49 24.7475C226.947 24.3581 226.559 23.8935 226.326 23.3537C226.093 22.8139 226.028 22.2416 226.13 21.6368C226.237 21.0058 226.482 20.4793 226.864 20.0572C227.26 19.6374 227.815 19.3527 228.53 19.2033C229.247 19.0408 230.145 19.0508 231.223 19.2333L234.043 19.7107L233.739 21.5052L231.254 21.0845C230.531 20.9621 230.011 20.9958 229.695 21.1857C229.392 21.3778 229.211 21.6513 229.151 22.0063C229.084 22.4007 229.182 22.7418 229.444 23.0296C229.722 23.3065 230.13 23.4906 230.669 23.5819C231.182 23.6687 231.662 23.6283 232.109 23.4606C232.559 23.2798 232.916 22.9684 233.18 22.5263L233.413 24.0262C233.074 24.672 232.579 25.1223 231.927 25.3771C231.275 25.6318 230.483 25.6802 229.549 25.5222Z" fill="#A12BFD"/>
<path d="M243.948 27.9656L246.101 17.4233L249.021 18.0196L248.413 20.9981L248.177 20.0519C248.643 19.3713 249.261 18.9123 250.03 18.6748C250.803 18.4243 251.685 18.4005 252.678 18.6033L252.102 21.425C251.974 21.3853 251.858 21.3547 251.753 21.3334C251.651 21.299 251.542 21.2698 251.424 21.2457C250.588 21.075 249.859 21.1779 249.238 21.5545C248.632 21.9208 248.227 22.6068 248.021 23.6127L247.005 28.59L243.948 27.9656Z" fill="#A12BFD"/>
<path d="M262.728 32.2486C261.535 31.9627 260.541 31.4776 259.745 30.7932C258.963 30.112 258.421 29.3104 258.121 28.3885C257.824 27.4535 257.8 26.4674 258.049 25.4301C258.3 24.3798 258.762 23.5102 259.435 22.8213C260.123 22.1225 260.943 21.6472 261.895 21.3954C262.85 21.1306 263.858 21.1256 264.922 21.3805C265.946 21.626 266.814 22.067 267.525 22.7037C268.252 23.3304 268.758 24.1097 269.042 25.0416C269.329 25.9605 269.337 26.9839 269.067 28.112C269.039 28.2287 269 28.3633 268.95 28.5158C268.902 28.6553 268.857 28.7883 268.813 28.9149L260.314 26.8778L260.738 25.108L267.642 26.7628L266.349 27.0082C266.48 26.4636 266.483 25.9639 266.359 25.5092C266.235 25.0544 266.005 24.6702 265.669 24.3565C265.336 24.0299 264.91 23.8044 264.391 23.6801C263.872 23.5558 263.384 23.5622 262.926 23.6993C262.484 23.8265 262.104 24.0711 261.784 24.4332C261.467 24.7823 261.242 25.2356 261.108 25.7932L260.996 26.26C260.86 26.8305 260.862 27.3657 261.002 27.8656C261.159 28.3556 261.436 28.7717 261.834 29.1139C262.248 29.4462 262.766 29.6869 263.389 29.8361C263.946 29.9697 264.453 30.0019 264.908 29.9328C265.376 29.8668 265.826 29.7072 266.257 29.454L267.452 31.5913C266.841 32.0209 266.137 32.2978 265.34 32.422C264.545 32.5332 263.675 32.4754 262.728 32.2486Z" fill="#A12BFD"/>
<path d="M280.059 36.7629C278.878 36.4319 277.903 35.9094 277.133 35.1954C276.377 34.4849 275.866 33.6634 275.602 32.7306C275.34 31.7851 275.354 30.7988 275.642 29.7717C275.933 28.7317 276.428 27.8803 277.126 27.2174C277.84 26.5453 278.678 26.1014 279.638 25.8859C280.602 25.6576 281.611 25.6909 282.663 25.9859C283.678 26.2701 284.528 26.7438 285.215 27.407C285.918 28.0609 286.393 28.8588 286.642 29.8008C286.894 30.7299 286.863 31.753 286.55 32.8699C286.518 32.9855 286.474 33.1185 286.418 33.269C286.365 33.4066 286.315 33.5378 286.266 33.6626L277.85 31.3044L278.341 29.5519L285.178 31.4676L283.876 31.6638C284.027 31.1246 284.05 30.6254 283.943 30.1662C283.836 29.707 283.621 29.3144 283.297 28.9882C282.976 28.6491 282.559 28.4077 282.046 28.2638C281.532 28.1199 281.044 28.1077 280.581 28.2273C280.135 28.3376 279.745 28.5676 279.412 28.9173C279.082 29.2541 278.84 29.6986 278.685 30.2507L278.556 30.7129C278.397 31.2778 278.379 31.8127 278.501 32.3175C278.639 32.8132 278.9 33.2395 279.285 33.5965C279.686 33.9443 280.194 34.2045 280.811 34.3772C281.363 34.5319 281.867 34.5833 282.325 34.5316C282.796 34.4834 283.251 34.341 283.691 34.1043L284.804 36.2854C284.178 36.6915 283.464 36.9415 282.662 37.0353C281.864 37.1163 280.996 37.0255 280.059 36.7629Z" fill="#A12BFD"/>
<path d="M292.176 40.1637L295.427 29.9066L298.268 30.8071L297.349 33.705L297.214 32.7392C297.749 32.1114 298.412 31.72 299.202 31.5649C299.997 31.3972 300.877 31.4664 301.843 31.7726L300.973 34.518C300.85 34.465 300.737 34.4223 300.636 34.3901C300.538 34.3452 300.432 34.3046 300.317 34.2683C299.504 34.0105 298.769 34.0361 298.111 34.3452C297.47 34.6457 296.995 35.2852 296.685 36.2639L295.15 41.1064L292.176 40.1637Z" fill="#A12BFD"/>
</svg>
