<svg width="128" height="16" viewBox="0 0 128 16" fill="none" xmlns="http://www.w3.org/2000/svg">
<path d="M4.72 15V3.2H0.08V0.999999H11.96V3.2H7.32V15H4.72ZM24.2759 15.2C23.1826 15.2 22.1759 15.02 21.2559 14.66C20.3359 14.3 19.5359 13.8 18.8559 13.16C18.1759 12.5067 17.6493 11.7467 17.2759 10.88C16.9026 10 16.7159 9.04 16.7159 8C16.7159 6.96 16.9026 6.00667 17.2759 5.14C17.6493 4.26 18.1759 3.5 18.8559 2.86C19.5359 2.20667 20.3359 1.7 21.2559 1.34C22.1759 0.979999 23.1759 0.799999 24.2559 0.799999C25.3493 0.799999 26.3493 0.979999 27.2559 1.34C28.1759 1.7 28.9759 2.20667 29.6559 2.86C30.3359 3.5 30.8626 4.26 31.2359 5.14C31.6093 6.00667 31.7959 6.96 31.7959 8C31.7959 9.04 31.6093 10 31.2359 10.88C30.8626 11.76 30.3359 12.52 29.6559 13.16C28.9759 13.8 28.1759 14.3 27.2559 14.66C26.3493 15.02 25.3559 15.2 24.2759 15.2ZM24.2559 12.92C24.9626 12.92 25.6159 12.8 26.2159 12.56C26.8159 12.32 27.3359 11.98 27.7759 11.54C28.2159 11.0867 28.5559 10.5667 28.7959 9.98C29.0493 9.38 29.1759 8.72 29.1759 8C29.1759 7.28 29.0493 6.62667 28.7959 6.04C28.5559 5.44 28.2159 4.92 27.7759 4.48C27.3359 4.02667 26.8159 3.68 26.2159 3.44C25.6159 3.2 24.9626 3.08 24.2559 3.08C23.5493 3.08 22.8959 3.2 22.2959 3.44C21.7093 3.68 21.1893 4.02667 20.7359 4.48C20.2959 4.92 19.9493 5.44 19.6959 6.04C19.4559 6.62667 19.3359 7.28 19.3359 8C19.3359 8.70667 19.4559 9.36 19.6959 9.96C19.9493 10.56 20.2959 11.0867 20.7359 11.54C21.1759 11.98 21.6959 12.32 22.2959 12.56C22.8959 12.8 23.5493 12.92 24.2559 12.92ZM38.5519 15V0.999999H44.3119C45.5519 0.999999 46.6119 1.2 47.4919 1.6C48.3852 2 49.0719 2.57333 49.5519 3.32C50.0319 4.06667 50.2719 4.95333 50.2719 5.98C50.2719 7.00667 50.0319 7.89333 49.5519 8.64C49.0719 9.37333 48.3852 9.94 47.4919 10.34C46.6119 10.7267 45.5519 10.92 44.3119 10.92H39.9919L41.1519 9.74V15H38.5519ZM47.7119 15L44.1719 9.92H46.9519L50.5119 15H47.7119ZM41.1519 10.02L39.9919 8.78H44.1919C45.3385 8.78 46.1985 8.53333 46.7719 8.04C47.3585 7.54667 47.6519 6.86 47.6519 5.98C47.6519 5.08667 47.3585 4.4 46.7719 3.92C46.1985 3.44 45.3385 3.2 44.1919 3.2H39.9919L41.1519 1.92V10.02ZM57.1808 15V0.999999H62.9408C64.1808 0.999999 65.2408 1.2 66.1208 1.6C67.0141 2 67.7008 2.57333 68.1808 3.32C68.6608 4.06667 68.9008 4.95333 68.9008 5.98C68.9008 7.00667 68.6608 7.89333 68.1808 8.64C67.7008 9.38667 67.0141 9.96 66.1208 10.36C65.2408 10.76 64.1808 10.96 62.9408 10.96H58.6208L59.7808 9.74V15H57.1808ZM59.7808 10.02L58.6208 8.76H62.8208C63.9674 8.76 64.8274 8.52 65.4008 8.04C65.9874 7.54667 66.2808 6.86 66.2808 5.98C66.2808 5.08667 65.9874 4.4 65.4008 3.92C64.8274 3.44 63.9674 3.2 62.8208 3.2H58.6208L59.7808 1.92V10.02ZM77.8972 6.82H84.8572V8.96H77.8972V6.82ZM78.0972 12.82H85.9972V15H75.4972V0.999999H85.7172V3.18H78.0972V12.82ZM92.8956 15V0.999999H99.0156C100.536 0.999999 101.869 1.29333 103.016 1.88C104.162 2.46667 105.056 3.28 105.696 4.32C106.336 5.36 106.656 6.58667 106.656 8C106.656 9.4 106.336 10.6267 105.696 11.68C105.056 12.72 104.162 13.5333 103.016 14.12C101.869 14.7067 100.536 15 99.0156 15H92.8956ZM95.4956 12.8H98.8956C99.949 12.8 100.856 12.6 101.616 12.2C102.389 11.8 102.982 11.24 103.396 10.52C103.822 9.8 104.036 8.96 104.036 8C104.036 7.02667 103.822 6.18667 103.396 5.48C102.982 4.76 102.389 4.2 101.616 3.8C100.856 3.4 99.949 3.2 98.8956 3.2H95.4956V12.8ZM119.979 15.2C118.886 15.2 117.879 15.02 116.959 14.66C116.039 14.3 115.239 13.8 114.559 13.16C113.879 12.5067 113.352 11.7467 112.979 10.88C112.606 10 112.419 9.04 112.419 8C112.419 6.96 112.606 6.00667 112.979 5.14C113.352 4.26 113.879 3.5 114.559 2.86C115.239 2.20667 116.039 1.7 116.959 1.34C117.879 0.979999 118.879 0.799999 119.959 0.799999C121.052 0.799999 122.052 0.979999 122.959 1.34C123.879 1.7 124.679 2.20667 125.359 2.86C126.039 3.5 126.566 4.26 126.939 5.14C127.312 6.00667 127.499 6.96 127.499 8C127.499 9.04 127.312 10 126.939 10.88C126.566 11.76 126.039 12.52 125.359 13.16C124.679 13.8 123.879 14.3 122.959 14.66C122.052 15.02 121.059 15.2 119.979 15.2ZM119.959 12.92C120.666 12.92 121.319 12.8 121.919 12.56C122.519 12.32 123.039 11.98 123.479 11.54C123.919 11.0867 124.259 10.5667 124.499 9.98C124.752 9.38 124.879 8.72 124.879 8C124.879 7.28 124.752 6.62667 124.499 6.04C124.259 5.44 123.919 4.92 123.479 4.48C123.039 4.02667 122.519 3.68 121.919 3.44C121.319 3.2 120.666 3.08 119.959 3.08C119.252 3.08 118.599 3.2 117.999 3.44C117.412 3.68 116.892 4.02667 116.439 4.48C115.999 4.92 115.652 5.44 115.399 6.04C115.159 6.62667 115.039 7.28 115.039 8C115.039 8.70667 115.159 9.36 115.399 9.96C115.652 10.56 115.999 11.0867 116.439 11.54C116.879 11.98 117.399 12.32 117.999 12.56C118.599 12.8 119.252 12.92 119.959 12.92Z" fill="white"/>
</svg>
