<svg width="128" height="34" viewBox="0 0 128 34" fill="none" xmlns="http://www.w3.org/2000/svg">
<path d="M0.948153 14V3.09091H3.25462V12.0984H7.93146V14H0.948153ZM10.2089 14V3.09091H17.5597V4.99254H12.5154V7.59197H17.1816V9.49361H12.5154V12.0984H17.5811V14H10.2089Z" fill="white"/>
<path d="M27.081 13.9091L24.4442 5.62074H24.343L21.701 13.9091L19.1442 13.9091L22.9048 3H25.8771L29.6431 13.9091H27.081Z" fill="white"/>
<path d="M59.081 30.9091L56.4442 22.6207H56.343L53.701 30.9091H51.1442L54.9048 20H57.8771L61.6431 30.9091H59.081Z" fill="white"/>
<path d="M38.1818 6.61719C38.1072 6.35795 38.0025 6.12891 37.8675 5.93004C37.7326 5.72763 37.5675 5.55717 37.3722 5.41868C37.1804 5.27663 36.9602 5.16832 36.7116 5.09375C36.4666 5.01918 36.195 4.98189 35.8967 4.98189C35.3391 4.98189 34.8491 5.12038 34.4265 5.39737C34.0075 5.67436 33.6808 6.07741 33.4464 6.60653C33.212 7.1321 33.0948 7.77486 33.0948 8.5348C33.0948 9.29474 33.2102 9.94105 33.4411 10.4737C33.6719 11.0064 33.9986 11.413 34.4212 11.6935C34.8438 11.9705 35.3427 12.109 35.918 12.109C36.44 12.109 36.8857 12.0167 37.255 11.832C37.6278 11.6438 37.9119 11.3793 38.1072 11.0384C38.3061 10.6974 38.4055 10.2944 38.4055 9.82919L38.8743 9.89844H36.0618V8.16193H40.6268V9.53622C40.6268 10.495 40.4244 11.3189 40.0195 12.0078C39.6147 12.6932 39.0572 13.2223 38.3469 13.5952C37.6367 13.9645 36.8235 14.1491 35.9073 14.1491C34.8846 14.1491 33.9862 13.9237 33.212 13.4727C32.4379 13.0181 31.8342 12.3736 31.4009 11.5391C30.9712 10.701 30.7564 9.70668 30.7564 8.55611C30.7564 7.67187 30.8842 6.88352 31.1399 6.19105C31.3991 5.49503 31.7614 4.90554 32.2266 4.42259C32.6918 3.93963 33.2333 3.57209 33.8512 3.31996C34.4691 3.06783 35.1385 2.94176 35.8594 2.94176C36.4773 2.94176 37.0526 3.03232 37.5852 3.21342C38.1179 3.39098 38.5902 3.64311 39.0021 3.96982C39.4176 4.29652 39.7567 4.68537 40.0195 5.13636C40.2823 5.58381 40.451 6.07741 40.5256 6.61719H38.1818ZM49.8476 3.09091H52.154V10.1754C52.154 10.9709 51.964 11.6669 51.5841 12.2635C51.2077 12.8601 50.6803 13.3253 50.002 13.6591C49.3238 13.9893 48.5336 14.1545 47.6317 14.1545C46.7261 14.1545 45.9342 13.9893 45.2559 13.6591C44.5777 13.3253 44.0503 12.8601 43.6739 12.2635C43.2975 11.6669 43.1093 10.9709 43.1093 10.1754V3.09091H45.4157V9.97834C45.4157 10.3938 45.5063 10.7631 45.6874 11.0863C45.8721 11.4094 46.1313 11.6634 46.4651 11.848C46.7989 12.0327 47.1878 12.125 47.6317 12.125C48.0791 12.125 48.468 12.0327 48.7982 11.848C49.132 11.6634 49.3895 11.4094 49.5706 11.0863C49.7552 10.7631 49.8476 10.3938 49.8476 9.97834V3.09091ZM54.8017 14V3.09091H62.1525V4.99254H57.1081V7.59197H61.7743V9.49361H57.1081V12.0984H62.1738V14H54.8017Z" fill="white"/>
<path d="M3.25462 20.0909V31H0.948153V20.0909H3.25462ZM15.0269 20.0909V31H13.0347L8.28862 24.1339H8.20872V31H5.90225V20.0909H7.9264L12.6352 26.9517H12.7311V20.0909H15.0269ZM26.8072 20.0909V31H24.815L20.0689 24.1339H19.989V31H17.6825V20.0909H19.7067L24.4155 26.9517H24.5114V20.0909H26.8072ZM39.4877 25.5455C39.4877 26.7351 39.2622 27.7472 38.8112 28.5817C38.3637 29.4162 37.7529 30.0536 36.9788 30.494C36.2082 30.9308 35.3417 31.1491 34.3794 31.1491C33.4099 31.1491 32.5399 30.929 31.7693 30.4886C30.9987 30.0483 30.3896 29.4109 29.9422 28.5763C29.4948 27.7418 29.271 26.7315 29.271 25.5455C29.271 24.3558 29.4948 23.3438 29.9422 22.5092C30.3896 21.6747 30.9987 21.0391 31.7693 20.6023C32.5399 20.1619 33.4099 19.9418 34.3794 19.9418C35.3417 19.9418 36.2082 20.1619 36.9788 20.6023C37.7529 21.0391 38.3637 21.6747 38.8112 22.5092C39.2622 23.3438 39.4877 24.3558 39.4877 25.5455ZM37.1492 25.5455C37.1492 24.7749 37.0338 24.125 36.803 23.5959C36.5757 23.0668 36.2544 22.6655 35.8389 22.392C35.4234 22.1186 34.9369 21.9819 34.3794 21.9819C33.8218 21.9819 33.3353 22.1186 32.9198 22.392C32.5044 22.6655 32.1812 23.0668 31.9504 23.5959C31.7231 24.125 31.6095 24.7749 31.6095 25.5455C31.6095 26.3161 31.7231 26.9659 31.9504 27.495C32.1812 28.0241 32.5044 28.4254 32.9198 28.6989C33.3353 28.9723 33.8218 29.109 34.3794 29.109C34.9369 29.109 35.4234 28.9723 35.8389 28.6989C36.2544 28.4254 36.5757 28.0241 36.803 27.495C37.0338 26.9659 37.1492 26.3161 37.1492 25.5455ZM43.3018 20.0909L45.9386 28.3793H46.0398L48.6818 20.0909H51.2386L47.478 31H44.5057L40.7397 20.0909H43.3018ZM61.3295 21.9925V20.0909H70.2891V21.9925H66.9492V31H64.6694V21.9925H61.3295ZM82.0414 25.5455C82.0414 26.7351 81.8159 27.7472 81.3649 28.5817C80.9174 29.4162 80.3066 30.0536 79.5325 30.494C78.7619 30.9308 77.8954 31.1491 76.9331 31.1491C75.9636 31.1491 75.0936 30.929 74.323 30.4886C73.5524 30.0483 72.9434 29.4109 72.4959 28.5763C72.0485 27.7418 71.8248 26.7315 71.8248 25.5455C71.8248 24.3558 72.0485 23.3438 72.4959 22.5092C72.9434 21.6747 73.5524 21.0391 74.323 20.6023C75.0936 20.1619 75.9636 19.9418 76.9331 19.9418C77.8954 19.9418 78.7619 20.1619 79.5325 20.6023C80.3066 21.0391 80.9174 21.6747 81.3649 22.5092C81.8159 23.3438 82.0414 24.3558 82.0414 25.5455ZM79.7029 25.5455C79.7029 24.7749 79.5875 24.125 79.3567 23.5959C79.1294 23.0668 78.8081 22.6655 78.3926 22.392C77.9771 22.1186 77.4906 21.9819 76.9331 21.9819C76.3755 21.9819 75.889 22.1186 75.4735 22.392C75.0581 22.6655 74.7349 23.0668 74.5041 23.5959C74.2768 24.125 74.1632 24.7749 74.1632 25.5455C74.1632 26.3161 74.2768 26.9659 74.5041 27.495C74.7349 28.0241 75.0581 28.4254 75.4735 28.6989C75.889 28.9723 76.3755 29.109 76.9331 29.109C77.4906 29.109 77.9771 28.9723 78.3926 28.6989C78.8081 28.4254 79.1294 28.0241 79.3567 27.495C79.5875 26.9659 79.7029 26.3161 79.7029 25.5455ZM84.4999 31V20.0909H88.8039C89.6278 20.0909 90.3309 20.2383 90.9133 20.533C91.4992 20.8242 91.9449 21.2379 92.2503 21.7741C92.5592 22.3068 92.7137 22.9336 92.7137 23.6545C92.7137 24.3789 92.5574 25.0021 92.2449 25.5241C91.9324 26.0426 91.4797 26.4403 90.8866 26.7173C90.2971 26.9943 89.5834 27.1328 88.7453 27.1328H85.8635V25.2791H88.3724C88.8128 25.2791 89.1785 25.2187 89.4697 25.098C89.7609 24.9773 89.9775 24.7962 90.1196 24.5547C90.2652 24.3132 90.338 24.0131 90.338 23.6545C90.338 23.2923 90.2652 22.9869 90.1196 22.7383C89.9775 22.4897 89.7591 22.3015 89.4644 22.1737C89.1732 22.0423 88.8057 21.9766 88.3618 21.9766H86.8064V31H84.4999ZM90.3912 26.0355L93.1025 31H90.5564L87.9037 26.0355H90.3912ZM101.012 23.2283C100.969 22.7987 100.786 22.4648 100.463 22.2269C100.14 21.989 99.7013 21.87 99.1473 21.87C98.7709 21.87 98.453 21.9233 98.1938 22.0298C97.9346 22.1328 97.7357 22.2766 97.5972 22.4613C97.4623 22.646 97.3948 22.8555 97.3948 23.0898C97.3877 23.2852 97.4285 23.4556 97.5173 23.6012C97.6096 23.7468 97.7357 23.8729 97.8955 23.9794C98.0553 24.0824 98.24 24.1729 98.4495 24.2511C98.659 24.3256 98.8827 24.3896 99.1207 24.4428L100.101 24.6772C100.577 24.7837 101.013 24.9258 101.411 25.1033C101.809 25.2809 102.153 25.4993 102.445 25.7585C102.736 26.0178 102.961 26.3232 103.121 26.6747C103.284 27.0263 103.368 27.4293 103.371 27.8839C103.368 28.5515 103.197 29.1303 102.86 29.6204C102.526 30.1069 102.043 30.4851 101.411 30.755C100.783 31.0213 100.024 31.1545 99.1366 31.1545C98.2559 31.1545 97.4889 31.0195 96.8355 30.7496C96.1856 30.4798 95.6778 30.0803 95.3121 29.5511C94.9498 29.0185 94.7599 28.3597 94.7421 27.5749H96.974C96.9988 27.9407 97.1036 28.2461 97.2883 28.4911C97.4765 28.7326 97.7268 28.9155 98.0393 29.0398C98.3554 29.1605 98.7123 29.2209 99.11 29.2209C99.5006 29.2209 99.8398 29.1641 100.127 29.0504C100.419 28.9368 100.644 28.7788 100.804 28.5763C100.964 28.3739 101.044 28.1413 101.044 27.8786C101.044 27.6335 100.971 27.4276 100.825 27.2607C100.683 27.0937 100.474 26.9517 100.197 26.8345C99.9232 26.7173 99.5876 26.6108 99.1899 26.5149L98.002 26.2166C97.0823 25.9929 96.3561 25.6431 95.8234 25.1673C95.2907 24.6914 95.0262 24.0504 95.0297 23.2443C95.0262 22.5838 95.202 22.0067 95.5571 21.5131C95.9157 21.0195 96.4076 20.6342 97.0326 20.3572C97.6576 20.0803 98.3678 19.9418 99.1633 19.9418C99.9729 19.9418 100.68 20.0803 101.283 20.3572C101.891 20.6342 102.363 21.0195 102.7 21.5131C103.038 22.0067 103.212 22.5785 103.222 23.2283H101.012Z" fill="white"/>
<path d="M71.8239 11.0639C71.5043 11.0639 71.2273 10.9936 70.9929 10.853C70.7585 10.7124 70.5767 10.5156 70.4474 10.2628C70.3196 10.0099 70.2557 9.71449 70.2557 9.37642C70.2557 9.03835 70.3196 8.74219 70.4474 8.48793C70.5767 8.23366 70.7585 8.03622 70.9929 7.8956C71.2273 7.75497 71.5043 7.68466 71.8239 7.68466C72.1435 7.68466 72.4205 7.75497 72.6548 7.8956C72.8892 8.03622 73.0703 8.23366 73.1982 8.48793C73.3274 8.74219 73.392 9.03835 73.392 9.37642C73.392 9.71449 73.3274 10.0099 73.1982 10.2628C73.0703 10.5156 72.8892 10.7124 72.6548 10.853C72.4205 10.9936 72.1435 11.0639 71.8239 11.0639ZM71.8281 10.446C72.0014 10.446 72.1463 10.3984 72.2628 10.3033C72.3793 10.2067 72.4659 10.0774 72.5227 9.91548C72.581 9.75355 72.6101 9.57315 72.6101 9.37429C72.6101 9.17401 72.581 8.9929 72.5227 8.83097C72.4659 8.66761 72.3793 8.53764 72.2628 8.44105C72.1463 8.34446 72.0014 8.29616 71.8281 8.29616C71.6506 8.29616 71.5028 8.34446 71.3849 8.44105C71.2685 8.53764 71.1811 8.66761 71.1229 8.83097C71.0661 8.9929 71.0376 9.17401 71.0376 9.37429C71.0376 9.57315 71.0661 9.75355 71.1229 9.91548C71.1811 10.0774 71.2685 10.2067 71.3849 10.3033C71.5028 10.3984 71.6506 10.446 71.8281 10.446Z" fill="white"/>
<path d="M78.4996 4.5C74.5055 2.51932 76.9998 14.4999 72.9997 13" stroke="white" stroke-linecap="round"/>
<line x1="74.9004" y1="8.5" x2="76.9004" y2="8.5" stroke="white" stroke-linecap="round"/>
</svg>
