<svg width="25" height="25" viewBox="0 0 25 25" fill="none" xmlns="http://www.w3.org/2000/svg">
<path fill-rule="evenodd" clip-rule="evenodd" d="M12.5 21.875C7.32233 21.875 3.125 17.6777 3.125 12.5C3.125 7.32233 7.32233 3.125 12.5 3.125C17.6777 3.125 21.875 7.32233 21.875 12.5C21.875 17.6777 17.6777 21.875 12.5 21.875ZM12.5 7.33333C11.9477 7.33333 11.5 7.78105 11.5 8.33333C11.5 8.88562 11.9477 9.33333 12.5 9.33333H12.5104C13.0627 9.33333 13.5104 8.88562 13.5104 8.33333C13.5104 7.78105 13.0627 7.33333 12.5104 7.33333H12.5ZM10.9375 11.5C10.3852 11.5 9.9375 11.9477 9.9375 12.5C9.9375 13.0523 10.3852 13.5 10.9375 13.5H11.5V16.6667C11.5 17.219 11.9477 17.6667 12.5 17.6667H14.5833C15.1356 17.6667 15.5833 17.219 15.5833 16.6667C15.5833 16.1144 15.1356 15.6667 14.5833 15.6667H13.5V12.5C13.5 11.9477 13.0523 11.5 12.5 11.5H10.9375Z" fill="white"/>
</svg>
